<mxfile host="app.diagrams.net" modified="2023-12-27T11:03:00.645Z" agent="Mozilla/5.0 (Macintosh; Intel Mac OS X 10_15_7) AppleWebKit/537.36 (KHTML, like Gecko) Chrome/120.0.0.0 Safari/537.36" etag="E_1vQIA4201pgdy6aSMu" version="22.1.12" type="github">
  <diagram name="Page-1" id="DzVoJcRiXnUa5LAvEpuA">
    <mxGraphModel dx="1561" dy="492" grid="1" gridSize="10" guides="1" tooltips="1" connect="1" arrows="1" fold="1" page="1" pageScale="1" pageWidth="827" pageHeight="1169" math="0" shadow="0">
      <root>
        <mxCell id="0" />
        <mxCell id="1" parent="0" />
        <mxCell id="WZA1Fgsl2dw0n8zQ-vlH-22" value="" style="ellipse;shape=cloud;whiteSpace=wrap;html=1;" vertex="1" parent="1">
          <mxGeometry x="-410" y="730" width="2830" height="2070" as="geometry" />
        </mxCell>
        <mxCell id="WZA1Fgsl2dw0n8zQ-vlH-1" value="E-Shop" style="swimlane;whiteSpace=wrap;html=1;" vertex="1" parent="1">
          <mxGeometry x="220" y="1350" width="1600" height="910" as="geometry" />
        </mxCell>
        <mxCell id="WZA1Fgsl2dw0n8zQ-vlH-2" value="User Layer" style="swimlane;whiteSpace=wrap;html=1;" vertex="1" parent="WZA1Fgsl2dw0n8zQ-vlH-1">
          <mxGeometry x="20" y="40" width="670" height="850" as="geometry" />
        </mxCell>
        <mxCell id="WZA1Fgsl2dw0n8zQ-vlH-6" value="FrontEnd" style="swimlane;horizontal=0;whiteSpace=wrap;html=1;" vertex="1" parent="WZA1Fgsl2dw0n8zQ-vlH-2">
          <mxGeometry x="20" y="40" width="630" height="370" as="geometry" />
        </mxCell>
        <mxCell id="WZA1Fgsl2dw0n8zQ-vlH-7" value="BackEnd" style="swimlane;horizontal=0;whiteSpace=wrap;html=1;" vertex="1" parent="WZA1Fgsl2dw0n8zQ-vlH-2">
          <mxGeometry x="20" y="470" width="630" height="360" as="geometry" />
        </mxCell>
        <mxCell id="WZA1Fgsl2dw0n8zQ-vlH-16" value="S3" style="shape=cylinder3;whiteSpace=wrap;html=1;boundedLbl=1;backgroundOutline=1;size=15;" vertex="1" parent="WZA1Fgsl2dw0n8zQ-vlH-7">
          <mxGeometry x="560" y="270" width="60" height="80" as="geometry" />
        </mxCell>
        <mxCell id="WZA1Fgsl2dw0n8zQ-vlH-17" value="PSQL" style="shape=cylinder3;whiteSpace=wrap;html=1;boundedLbl=1;backgroundOutline=1;size=15;" vertex="1" parent="WZA1Fgsl2dw0n8zQ-vlH-7">
          <mxGeometry x="490" y="270" width="60" height="80" as="geometry" />
        </mxCell>
        <mxCell id="WZA1Fgsl2dw0n8zQ-vlH-18" value="Redis" style="shape=cylinder3;whiteSpace=wrap;html=1;boundedLbl=1;backgroundOutline=1;size=15;" vertex="1" parent="WZA1Fgsl2dw0n8zQ-vlH-7">
          <mxGeometry x="420" y="270" width="60" height="80" as="geometry" />
        </mxCell>
        <mxCell id="WZA1Fgsl2dw0n8zQ-vlH-20" value="Kafka" style="shape=hexagon;perimeter=hexagonPerimeter2;whiteSpace=wrap;html=1;fixedSize=1;" vertex="1" parent="WZA1Fgsl2dw0n8zQ-vlH-7">
          <mxGeometry x="250" y="290" width="90" height="60" as="geometry" />
        </mxCell>
        <mxCell id="WZA1Fgsl2dw0n8zQ-vlH-21" value="Mongo" style="shape=cylinder3;whiteSpace=wrap;html=1;boundedLbl=1;backgroundOutline=1;size=15;" vertex="1" parent="WZA1Fgsl2dw0n8zQ-vlH-7">
          <mxGeometry x="350" y="270" width="60" height="80" as="geometry" />
        </mxCell>
        <mxCell id="WZA1Fgsl2dw0n8zQ-vlH-14" value="" style="endArrow=classic;startArrow=classic;html=1;rounded=0;entryX=0.5;entryY=1;entryDx=0;entryDy=0;exitX=0.5;exitY=0;exitDx=0;exitDy=0;" edge="1" parent="WZA1Fgsl2dw0n8zQ-vlH-2" source="WZA1Fgsl2dw0n8zQ-vlH-7" target="WZA1Fgsl2dw0n8zQ-vlH-6">
          <mxGeometry width="50" height="50" relative="1" as="geometry">
            <mxPoint x="380" y="550" as="sourcePoint" />
            <mxPoint x="430" y="500" as="targetPoint" />
          </mxGeometry>
        </mxCell>
        <mxCell id="WZA1Fgsl2dw0n8zQ-vlH-3" value="Admin" style="swimlane;whiteSpace=wrap;html=1;" vertex="1" parent="WZA1Fgsl2dw0n8zQ-vlH-1">
          <mxGeometry x="910" y="40" width="670" height="850" as="geometry" />
        </mxCell>
        <mxCell id="WZA1Fgsl2dw0n8zQ-vlH-9" value="FrontEnd" style="swimlane;horizontal=0;whiteSpace=wrap;html=1;" vertex="1" parent="WZA1Fgsl2dw0n8zQ-vlH-3">
          <mxGeometry x="20" y="40" width="630" height="370" as="geometry" />
        </mxCell>
        <mxCell id="WZA1Fgsl2dw0n8zQ-vlH-10" value="BackEnd" style="swimlane;horizontal=0;whiteSpace=wrap;html=1;" vertex="1" parent="WZA1Fgsl2dw0n8zQ-vlH-3">
          <mxGeometry x="20" y="470" width="630" height="360" as="geometry" />
        </mxCell>
        <mxCell id="WZA1Fgsl2dw0n8zQ-vlH-15" value="" style="endArrow=classic;startArrow=classic;html=1;rounded=0;entryX=0.5;entryY=1;entryDx=0;entryDy=0;exitX=0.5;exitY=0;exitDx=0;exitDy=0;" edge="1" parent="WZA1Fgsl2dw0n8zQ-vlH-3" source="WZA1Fgsl2dw0n8zQ-vlH-10" target="WZA1Fgsl2dw0n8zQ-vlH-9">
          <mxGeometry width="50" height="50" relative="1" as="geometry">
            <mxPoint x="190" y="570" as="sourcePoint" />
            <mxPoint x="240" y="520" as="targetPoint" />
          </mxGeometry>
        </mxCell>
        <mxCell id="WZA1Fgsl2dw0n8zQ-vlH-12" value="" style="endArrow=classic;startArrow=classic;html=1;rounded=0;exitX=1;exitY=0.5;exitDx=0;exitDy=0;entryX=0;entryY=0.5;entryDx=0;entryDy=0;" edge="1" parent="WZA1Fgsl2dw0n8zQ-vlH-1" source="WZA1Fgsl2dw0n8zQ-vlH-2" target="WZA1Fgsl2dw0n8zQ-vlH-3">
          <mxGeometry width="50" height="50" relative="1" as="geometry">
            <mxPoint x="800" y="450" as="sourcePoint" />
            <mxPoint x="850" y="400" as="targetPoint" />
          </mxGeometry>
        </mxCell>
        <mxCell id="WZA1Fgsl2dw0n8zQ-vlH-23" value="&lt;font style=&quot;font-size: 58px;&quot;&gt;Amazon/Azure/DigitalOcean&lt;/font&gt;" style="text;html=1;strokeColor=none;fillColor=none;align=center;verticalAlign=middle;whiteSpace=wrap;rounded=0;" vertex="1" parent="1">
          <mxGeometry x="1000" y="1260" width="60" height="30" as="geometry" />
        </mxCell>
      </root>
    </mxGraphModel>
  </diagram>
</mxfile>
